<svg width="22" height="22" viewBox="0 0 22 22" fill="none" xmlns="http://www.w3.org/2000/svg">
<path d="M21 11.0728C21 5.54991 16.5228 1.07275 11 1.07275C5.47715 1.07275 1 5.54991 1 11.0728C1 16.5956 5.47715 21.0728 11 21.0728C16.5228 21.0728 21 16.5956 21 11.0728Z" stroke="#505050"/>
<path d="M14 9.07275C14 10.7296 12.6568 12.0728 11 12.0728C9.34317 12.0728 8 10.7296 8 9.07275C8 7.4159 9.34317 6.07275 11 6.07275C12.6568 6.07275 14 7.4159 14 9.07275Z" stroke="#505050"/>
<path d="M17 19.0728C17 16.8636 14.3137 15.0728 11 15.0728C7.68629 15.0728 5 16.8636 5 19.0728" stroke="#505050" stroke-linecap="round"/>
</svg>
