<svg width="27" height="16" viewBox="0 0 27 16" fill="none" xmlns="http://www.w3.org/2000/svg">
<path d="M26.6 0.408081H0V15.7374H26.6V0.408081Z" fill="#B22234"/>
<path d="M0 2.17676H26.6H0ZM26.6 4.53511H0H26.6ZM0 6.89347H26.6H0ZM26.6 9.25183H0H26.6ZM0 11.6102H26.6H0ZM26.6 13.9685H0H26.6Z" fill="black"/>
<path fill-rule="evenodd" clip-rule="evenodd" d="M26.6 2.76646H0V1.58728H26.6V2.76646ZM0 3.94564H26.6V5.12481H0V3.94564ZM26.6 7.48317H0V6.30399H26.6V7.48317ZM0 8.66235H26.6V9.84153H0V8.66235ZM26.6 12.1999H0V11.0207H26.6V12.1999ZM0 13.3791H26.6V14.5582H0V13.3791Z" fill="white"/>
<path d="M10.64 0.408081H0V8.66233H10.64V0.408081Z" fill="#3C3B6E"/>
<path d="M0.886248 0.761841L1.13945 1.6151L0.476562 1.08776H1.29593L0.633049 1.6151L0.886248 0.761841Z" fill="white"/>
<path d="M0.886248 2.41272L1.13945 3.26598L0.476562 2.73864H1.29593L0.633049 3.26598L0.886248 2.41272Z" fill="white"/>
<path d="M0.886248 4.06348L1.13945 4.91674L0.476562 4.38939H1.29593L0.633049 4.91674L0.886248 4.06348Z" fill="white"/>
<path d="M0.886248 5.71436L1.13945 6.56762L0.476562 6.04027H1.29593L0.633049 6.56762L0.886248 5.71436Z" fill="white"/>
<path d="M0.886248 7.36511L1.13945 8.21837L0.476562 7.69103H1.29593L0.633049 8.21837L0.886248 7.36511Z" fill="white"/>
<path d="M1.77297 1.58728L2.02617 2.44054L1.36328 1.9132H2.18265L1.51977 2.44054L1.77297 1.58728Z" fill="white"/>
<path d="M1.77297 3.23804L2.02617 4.0913L1.36328 3.56395H2.18265L1.51977 4.0913L1.77297 3.23804Z" fill="white"/>
<path d="M1.77297 4.88892L2.02617 5.74218L1.36328 5.21483H2.18265L1.51977 5.74218L1.77297 4.88892Z" fill="white"/>
<path d="M1.77297 6.53979L2.02617 7.39306L1.36328 6.86571H2.18265L1.51977 7.39306L1.77297 6.53979Z" fill="white"/>
<path d="M2.65969 0.761841L2.91289 1.6151L2.25 1.08776H3.06937L2.40649 1.6151L2.65969 0.761841Z" fill="white"/>
<path d="M2.65969 2.41272L2.91289 3.26598L2.25 2.73864H3.06937L2.40649 3.26598L2.65969 2.41272Z" fill="white"/>
<path d="M2.65969 4.06348L2.91289 4.91674L2.25 4.38939H3.06937L2.40649 4.91674L2.65969 4.06348Z" fill="white"/>
<path d="M2.65969 5.71436L2.91289 6.56762L2.25 6.04027H3.06937L2.40649 6.56762L2.65969 5.71436Z" fill="white"/>
<path d="M2.65969 7.36511L2.91289 8.21837L2.25 7.69103H3.06937L2.40649 8.21837L2.65969 7.36511Z" fill="white"/>
<path d="M3.5464 1.58728L3.7996 2.44054L3.13672 1.9132H3.95609L3.2932 2.44054L3.5464 1.58728Z" fill="white"/>
<path d="M3.5464 3.23804L3.7996 4.0913L3.13672 3.56395H3.95609L3.2932 4.0913L3.5464 3.23804Z" fill="white"/>
<path d="M3.5464 4.88892L3.7996 5.74218L3.13672 5.21483H3.95609L3.2932 5.74218L3.5464 4.88892Z" fill="white"/>
<path d="M3.5464 6.53979L3.7996 7.39306L3.13672 6.86571H3.95609L3.2932 7.39306L3.5464 6.53979Z" fill="white"/>
<path d="M4.43312 0.761841L4.68632 1.6151L4.02344 1.08776H4.84281L4.17992 1.6151L4.43312 0.761841Z" fill="white"/>
<path d="M4.43312 2.41272L4.68632 3.26598L4.02344 2.73864H4.84281L4.17992 3.26598L4.43312 2.41272Z" fill="white"/>
<path d="M4.43312 4.06348L4.68632 4.91674L4.02344 4.38939H4.84281L4.17992 4.91674L4.43312 4.06348Z" fill="white"/>
<path d="M4.43312 5.71436L4.68632 6.56762L4.02344 6.04027H4.84281L4.17992 6.56762L4.43312 5.71436Z" fill="white"/>
<path d="M4.43312 7.36511L4.68632 8.21837L4.02344 7.69103H4.84281L4.17992 8.21837L4.43312 7.36511Z" fill="white"/>
<path d="M5.31984 1.58728L5.57304 2.44054L4.91016 1.9132H5.72953L5.06664 2.44054L5.31984 1.58728Z" fill="white"/>
<path d="M5.31984 3.23804L5.57304 4.0913L4.91016 3.56395H5.72953L5.06664 4.0913L5.31984 3.23804Z" fill="white"/>
<path d="M5.31984 4.88892L5.57304 5.74218L4.91016 5.21483H5.72953L5.06664 5.74218L5.31984 4.88892Z" fill="white"/>
<path d="M5.31984 6.53979L5.57304 7.39306L4.91016 6.86571H5.72953L5.06664 7.39306L5.31984 6.53979Z" fill="white"/>
<path d="M6.20656 0.761841L6.45976 1.6151L5.79688 1.08776H6.61625L5.95336 1.6151L6.20656 0.761841Z" fill="white"/>
<path d="M6.20656 2.4126L6.45976 3.26586L5.79688 2.73851H6.61625L5.95336 3.26586L6.20656 2.4126Z" fill="white"/>
<path d="M6.20656 4.0636L6.45976 4.91686L5.79688 4.38952H6.61625L5.95336 4.91686L6.20656 4.0636Z" fill="white"/>
<path d="M6.20656 5.71436L6.45976 6.56762L5.79688 6.04027H6.61625L5.95336 6.56762L6.20656 5.71436Z" fill="white"/>
<path d="M6.20656 7.36523L6.45976 8.2185L5.79688 7.69115H6.61625L5.95336 8.2185L6.20656 7.36523Z" fill="white"/>
<path d="M7.09328 1.58728L7.34648 2.44054L6.68359 1.9132H7.50297L6.84008 2.44054L7.09328 1.58728Z" fill="white"/>
<path d="M7.09328 3.23804L7.34648 4.0913L6.68359 3.56395H7.50297L6.84008 4.0913L7.09328 3.23804Z" fill="white"/>
<path d="M7.09328 4.88892L7.34648 5.74218L6.68359 5.21483H7.50297L6.84008 5.74218L7.09328 4.88892Z" fill="white"/>
<path d="M7.09328 6.53979L7.34648 7.39306L6.68359 6.86571H7.50297L6.84008 7.39306L7.09328 6.53979Z" fill="white"/>
<path d="M7.98 0.761841L8.2332 1.6151L7.57031 1.08776H8.38968L7.7268 1.6151L7.98 0.761841Z" fill="white"/>
<path d="M7.98 2.41272L8.2332 3.26598L7.57031 2.73864H8.38968L7.7268 3.26598L7.98 2.41272Z" fill="white"/>
<path d="M7.98 4.06348L8.2332 4.91674L7.57031 4.38939H8.38968L7.7268 4.91674L7.98 4.06348Z" fill="white"/>
<path d="M7.98 5.71436L8.2332 6.56762L7.57031 6.04027H8.38968L7.7268 6.56762L7.98 5.71436Z" fill="white"/>
<path d="M7.98 7.36511L8.2332 8.21837L7.57031 7.69103H8.38968L7.7268 8.21837L7.98 7.36511Z" fill="white"/>
<path d="M8.86672 1.58728L9.11992 2.44054L8.45703 1.9132H9.2764L8.61352 2.44054L8.86672 1.58728Z" fill="white"/>
<path d="M8.86672 3.23804L9.11992 4.0913L8.45703 3.56395H9.2764L8.61352 4.0913L8.86672 3.23804Z" fill="white"/>
<path d="M8.86672 4.88892L9.11992 5.74218L8.45703 5.21483H9.2764L8.61352 5.74218L8.86672 4.88892Z" fill="white"/>
<path d="M8.86672 6.53979L9.11992 7.39306L8.45703 6.86571H9.2764L8.61352 7.39306L8.86672 6.53979Z" fill="white"/>
<path d="M9.75344 0.761841L10.0066 1.6151L9.34375 1.08776H10.1631L9.50024 1.6151L9.75344 0.761841Z" fill="white"/>
<path d="M9.75344 2.41272L10.0066 3.26598L9.34375 2.73864H10.1631L9.50024 3.26598L9.75344 2.41272Z" fill="white"/>
<path d="M9.75344 4.06348L10.0066 4.91674L9.34375 4.38939H10.1631L9.50024 4.91674L9.75344 4.06348Z" fill="white"/>
<path d="M9.75344 5.71436L10.0066 6.56762L9.34375 6.04027H10.1631L9.50024 6.56762L9.75344 5.71436Z" fill="white"/>
<path d="M9.75344 7.36511L10.0066 8.21837L9.34375 7.69103H10.1631L9.50024 8.21837L9.75344 7.36511Z" fill="white"/>
</svg>
