<svg width="24" height="20" viewBox="0 0 24 20" fill="none" xmlns="http://www.w3.org/2000/svg">
<path d="M11.8545 5.07899L12.9794 3.95018C14.8501 2.07307 17.7503 2.01598 19.6845 3.81819V3.81819C21.8613 5.84637 21.9743 9.41659 19.9307 11.5968L17.6494 14.0306L13.1222 18.2265C12.3947 18.9007 11.3131 18.9009 10.5855 18.2269L9.11894 16.8685" stroke="#505050" stroke-linecap="round"/>
<path d="M11.8523 5.07899L10.7278 3.95045C8.85722 2.0732 5.95692 2.01602 4.02264 3.81826V3.81826C1.84591 5.84639 1.73293 9.41651 3.77648 11.5966L6.05794 14.0306L10.5844 18.2265C11.3117 18.9007 12.3932 18.901 13.1209 18.2272L14.5883 16.8685" stroke="#505050" stroke-linecap="round"/>
</svg>
