<svg width="60" height="59" viewBox="0 0 60 59" fill="none" xmlns="http://www.w3.org/2000/svg">
<path d="M11.25 37H1.25V54.5H11.25V37Z" stroke="#333333" stroke-miterlimit="10" stroke-linejoin="round"/>
<path d="M11.25 53.25L33.75 58.25L58.75 47V42L41.25 45.75" stroke="#333333" stroke-miterlimit="10" stroke-linejoin="round"/>
<path d="M11.25 38.25H22.5L31.25 43.25H41.25V48.25L30 50.75L21.25 47" stroke="#333333" stroke-miterlimit="10" stroke-linejoin="round"/>
<path d="M6.25 48.25V50.75" stroke="#333333" stroke-miterlimit="10" stroke-linejoin="round"/>
<path d="M26.25 5.75C26.25 9.25 24 12 21.25 12C18.5 12 16.25 9.25 16.25 5.75C16.25 2.25 18.5 0.75 21.25 0.75C24 0.75 26.25 2.25 26.25 5.75Z" stroke="#333333" stroke-miterlimit="10" stroke-linejoin="round"/>
<path d="M15 29.5V38.25" stroke="#333333" stroke-miterlimit="10" stroke-linejoin="round"/>
<path d="M21.25 22V24.5" stroke="#333333" stroke-miterlimit="10" stroke-linejoin="round"/>
<path d="M21.25 17V19.5" stroke="#333333" stroke-miterlimit="10" stroke-linejoin="round"/>
<path d="M27.5 29.5V40.75" stroke="#333333" stroke-miterlimit="10" stroke-linejoin="round"/>
<path d="M21.25 33.25V38.25" stroke="#333333" stroke-miterlimit="10" stroke-linejoin="round"/>
<path d="M27.5 18.25V32H28.75C30.875 32 32.5 30.375 32.5 28.25V17.75C32.5 15.25 30.625 13 28 12.75L21.25 12L14.5 12.75C12 13 10 15.125 10 17.75V28.25C10 30.375 11.625 32 13.75 32H15V18.25" stroke="#333333" stroke-miterlimit="10" stroke-linejoin="round"/>
<path d="M15 29.5H27.5" stroke="#333333" stroke-miterlimit="10" stroke-linejoin="round"/>
<path d="M52.5 8.25C52.5 11.75 50.25 14.5 47.5 14.5C44.75 14.5 42.5 11.75 42.5 8.25C42.5 4.75 44.75 3.25 47.5 3.25C50.25 3.25 52.5 4.75 52.5 8.25Z" stroke="#333333" stroke-miterlimit="10" stroke-linejoin="round"/>
<path d="M47.5 14.5L51.875 15.25C54.5 15.625 56.625 17.5 57.125 20L58.125 29.125C58.375 31.375 56.625 33.25 54.375 33.25H53.75" stroke="#333333" stroke-miterlimit="10" stroke-linejoin="round"/>
<path d="M47.5004 14.5L43.1254 15.25C40.5004 15.625 38.3754 17.5 37.8754 20L36.8754 29.125C36.6254 31.375 38.3754 33.25 40.6254 33.25H41.2504" stroke="#333333" stroke-miterlimit="10" stroke-linejoin="round"/>
<path d="M53.75 43.25L52.5 20.75" stroke="#333333" stroke-miterlimit="10" stroke-linejoin="round"/>
<path d="M41.25 43.25L42.5 20.75" stroke="#333333" stroke-miterlimit="10" stroke-linejoin="round"/>
<path d="M52.5 29.5H42.5" stroke="#333333" stroke-miterlimit="10" stroke-linejoin="round"/>
</svg>
