<svg width="19" height="19" viewBox="0 0 19 19" fill="none" xmlns="http://www.w3.org/2000/svg">
<path d="M6.83789 16.0676C6.83789 16.5541 6.90935 17.3809 7.54323 17.8211C8.1771 18.2612 8.95564 18.5001 9.75681 18.5001C10.558 18.5001 11.3365 18.2612 11.9704 17.8211C12.6043 17.3809 12.6757 16.5541 12.6757 16.0676" stroke="#505050" stroke-linecap="round" stroke-linejoin="round"/>
<path d="M16.8298 9.88465C16.1191 9.05466 15.7961 8.33541 15.7961 7.11345V6.69797C15.7961 5.1056 15.4296 4.07963 14.6328 3.05366C13.4047 1.46032 11.3372 0.5 9.3133 0.5H9.22724C7.24586 0.5 5.2432 1.41622 3.99383 2.94489C3.15351 3.99144 2.74447 5.06151 2.74447 6.69797V7.11345C2.74447 8.33541 2.44276 9.05466 1.71075 9.88465C1.17213 10.4961 1 11.282 1 12.1326C1 12.9841 1.27946 13.7906 1.84032 14.4462C2.57234 15.2321 3.60607 15.7338 4.66203 15.821C6.19086 15.9954 7.71969 16.0611 9.27075 16.0611C10.8209 16.0611 12.3497 15.9513 13.8795 15.821C14.9345 15.7338 15.9682 15.2321 16.7002 14.4462C17.2601 13.7906 17.5405 12.9841 17.5405 12.1326C17.5405 11.282 17.3684 10.4961 16.8298 9.88465" stroke="#505050"/>
</svg>
