<svg width="16" height="17" viewBox="0 0 16 17" fill="none" xmlns="http://www.w3.org/2000/svg">
<path d="M15.2269 15.9393C15.6409 16.351 16.2799 15.7156 15.8659 15.3129L12.4911 11.9481C13.6749 10.6455 14.3293 8.95179 14.327 7.19615C14.327 3.26754 11.1142 0.0727539 7.16351 0.0727539C3.21278 0.0727539 0 3.26754 0 7.19615C0 11.1247 3.21278 14.3195 7.16351 14.3195C8.94538 14.3195 10.5923 13.6663 11.8522 12.5834L15.2269 15.9393ZM0.899038 7.19615C0.899038 3.75974 3.71584 0.967652 7.16261 0.967652C10.6184 0.967652 13.4262 3.75974 13.4262 7.19615C13.4262 10.6326 10.6184 13.4246 7.16261 13.4246C3.71584 13.4246 0.899038 10.6326 0.899038 7.19615Z" fill="#333333"/>
</svg>
