<svg width="62" height="61" viewBox="0 0 62 61" fill="none" xmlns="http://www.w3.org/2000/svg">
<path d="M27.0862 60.5C30.688 60.5 33.6079 57.5801 33.6079 53.9783C33.6079 50.3764 30.688 47.4565 27.0862 47.4565C23.4843 47.4565 20.5645 50.3764 20.5645 53.9783C20.5645 57.5801 23.4843 60.5 27.0862 60.5Z" stroke="#333333" stroke-miterlimit="10" stroke-linejoin="round"/>
<path d="M4.91304 8.32609C7.07416 8.32609 8.82609 6.57416 8.82609 4.41304C8.82609 2.25193 7.07416 0.5 4.91304 0.5C2.75193 0.5 1 2.25193 1 4.41304C1 6.57416 2.75193 8.32609 4.91304 8.32609Z" stroke="#333333" stroke-miterlimit="10" stroke-linejoin="round"/>
<path d="M40.1298 25.2826C42.291 25.2826 44.0429 23.5307 44.0429 21.3696C44.0429 19.2084 42.291 17.4565 40.1298 17.4565C37.9687 17.4565 36.2168 19.2084 36.2168 21.3696C36.2168 23.5307 37.9687 25.2826 40.1298 25.2826Z" stroke="#333333" stroke-miterlimit="10" stroke-linejoin="round"/>
<path d="M54.4788 60.5C58.0806 60.5 61.0005 57.5801 61.0005 53.9783C61.0005 50.3764 58.0806 47.4565 54.4788 47.4565C50.8769 47.4565 47.957 50.3764 47.957 53.9783C47.957 57.5801 50.8769 60.5 54.4788 60.5Z" stroke="#333333" stroke-miterlimit="10" stroke-linejoin="round"/>
<path d="M47.9572 53.9783H33.6094" stroke="#333333" stroke-miterlimit="10" stroke-linejoin="round"/>
<path d="M28.3919 53.9783H25.7832" stroke="#333333" stroke-miterlimit="10" stroke-linejoin="round"/>
<path d="M55.7825 53.9783H53.1738" stroke="#333333" stroke-miterlimit="10" stroke-linejoin="round"/>
<path d="M60.9995 21.3696V29.1957C60.9995 34.9348 56.3038 39.6304 50.5647 39.6304H24.4778C18.7386 39.6304 14.043 34.9348 14.043 29.1957V21.3696H36.2169" stroke="#333333" stroke-miterlimit="10" stroke-linejoin="round"/>
<path d="M40.1309 17.4565V0.5C51.6091 0.5 61.0004 9.8913 61.0004 21.3696H44.0439" stroke="#333333" stroke-miterlimit="10" stroke-linejoin="round"/>
<path d="M14.0436 21.3696V14.1956C14.0436 12.1087 13.1305 10.1522 11.4349 8.97825L8.82617 7.02173" stroke="#333333" stroke-miterlimit="10" stroke-linejoin="round"/>
<path d="M42.7383 18.7609L54.8687 6.63046" stroke="#333333" stroke-miterlimit="10" stroke-linejoin="round"/>
<path d="M20.5647 53.9783C16.9125 53.9783 14.043 51.1087 14.043 47.4565V46.1522C14.043 42.5 16.9125 39.6304 20.5647 39.6304H29.6951" stroke="#333333" stroke-miterlimit="10" stroke-linejoin="round"/>
<path d="M51.8695 33.1087H23.1738" stroke="#333333" stroke-miterlimit="10" stroke-linejoin="round"/>
</svg>
