<svg width="62" height="63" viewBox="0 0 62 63" fill="none" xmlns="http://www.w3.org/2000/svg">
<path d="M51.087 9.96594C50.6957 9.57464 50.4348 9.0529 50.0435 8.66159C46.6522 4.87898 42.2174 2.27029 37.2609 1.35725C22.913 -1.51232 10.3913 8.40072 8.95652 21.8355C8.82609 23.5312 8.30435 25.3572 7.3913 26.9225L1 38.6616L6.73913 40.879C7.26087 41.1399 7.52174 41.6616 7.52174 42.1833V50.4007C7.52174 51.1833 8.04348 51.7051 8.82609 51.7051H17.9565C18.7391 51.7051 19.2609 52.2268 19.2609 53.0094V62.1399" stroke="#333333" stroke-miterlimit="10" stroke-linejoin="round"/>
<path d="M49.2617 62.1399V53.4008C49.2617 52.4877 49.2617 51.5747 49.3922 50.6617" stroke="#333333" stroke-miterlimit="10" stroke-linejoin="round"/>
<path d="M27.0879 42.5746L44.0444 54.3137L61.0009 42.5746V15.1833C58.1314 15.1833 55.7835 12.8354 55.7835 9.96588H32.3053C32.3053 12.8354 29.9575 15.1833 27.0879 15.1833V42.5746Z" stroke="#333333" stroke-miterlimit="10" stroke-linejoin="round"/>
<path d="M44.043 49.0963V13.8789" stroke="#333333" stroke-miterlimit="10" stroke-linejoin="round"/>
<path d="M57.087 29.5311H31" stroke="#333333" stroke-miterlimit="10" stroke-linejoin="round"/>
</svg>
