<svg width="65" height="43" viewBox="0 0 65 43" fill="none" xmlns="http://www.w3.org/2000/svg">
<path d="M54.4754 17.2C53.3921 18.275 52.6183 19.8107 52.6183 21.5C52.6183 24.8786 55.404 27.6428 58.8088 27.6428H61.904V37.625C61.904 39.775 60.2016 41.4643 58.035 41.4643H5.41592C3.24926 41.4643 1.54688 39.775 1.54688 37.625V5.37499C1.54688 3.22499 3.24926 1.53571 5.41592 1.53571H58.035C60.2016 1.53571 61.904 3.22499 61.904 5.37499V15.3571H58.8088C57.1064 15.3571 55.5588 16.125 54.4754 17.2Z" stroke="black" stroke-miterlimit="10" stroke-linecap="round" stroke-linejoin="round"/>
<path d="M63.4525 15.3571V27.6428H58.8096C55.4049 27.6428 52.6191 24.8785 52.6191 21.5C52.6191 19.8107 53.393 18.275 54.4763 17.2C55.5596 16.125 57.1072 15.3571 58.8096 15.3571H63.4525Z" stroke="black" stroke-miterlimit="10" stroke-linecap="round" stroke-linejoin="round"/>
<path d="M6.19141 6.14288H7.73902" stroke="black" stroke-miterlimit="10" stroke-linecap="round" stroke-linejoin="round"/>
<path d="M12.3809 6.14288H13.9285" stroke="black" stroke-miterlimit="10" stroke-linecap="round" stroke-linejoin="round"/>
<path d="M18.5723 6.14288H20.1199" stroke="black" stroke-miterlimit="10" stroke-linecap="round" stroke-linejoin="round"/>
<path d="M24.7617 6.14288H26.3093" stroke="black" stroke-miterlimit="10" stroke-linecap="round" stroke-linejoin="round"/>
<path d="M30.9531 6.14288H32.5007" stroke="black" stroke-miterlimit="10" stroke-linecap="round" stroke-linejoin="round"/>
<path d="M37.1426 6.14288H38.6902" stroke="black" stroke-miterlimit="10" stroke-linecap="round" stroke-linejoin="round"/>
<path d="M43.334 6.14288H44.8816" stroke="black" stroke-miterlimit="10" stroke-linecap="round" stroke-linejoin="round"/>
<path d="M49.5234 6.14288H51.0711" stroke="black" stroke-miterlimit="10" stroke-linecap="round" stroke-linejoin="round"/>
<path d="M55.7148 6.14288H57.2625" stroke="black" stroke-miterlimit="10" stroke-linecap="round" stroke-linejoin="round"/>
<path d="M6.19141 36.8571H7.73902" stroke="black" stroke-miterlimit="10" stroke-linecap="round" stroke-linejoin="round"/>
<path d="M12.3809 36.8571H13.9285" stroke="black" stroke-miterlimit="10" stroke-linecap="round" stroke-linejoin="round"/>
<path d="M18.5723 36.8571H20.1199" stroke="black" stroke-miterlimit="10" stroke-linecap="round" stroke-linejoin="round"/>
<path d="M24.7617 36.8571H26.3093" stroke="black" stroke-miterlimit="10" stroke-linecap="round" stroke-linejoin="round"/>
<path d="M30.9531 36.8571H32.5007" stroke="black" stroke-miterlimit="10" stroke-linecap="round" stroke-linejoin="round"/>
<path d="M37.1426 36.8571H38.6902" stroke="black" stroke-miterlimit="10" stroke-linecap="round" stroke-linejoin="round"/>
<path d="M43.334 36.8571H44.8816" stroke="black" stroke-miterlimit="10" stroke-linecap="round" stroke-linejoin="round"/>
<path d="M49.5234 36.8571H51.0711" stroke="black" stroke-miterlimit="10" stroke-linecap="round" stroke-linejoin="round"/>
<path d="M55.7148 36.8571H57.2625" stroke="black" stroke-miterlimit="10" stroke-linecap="round" stroke-linejoin="round"/>
</svg>
