<svg width="43" height="63" viewBox="0 0 43 63" fill="none" xmlns="http://www.w3.org/2000/svg">
<path d="M37.85 37.4048H5.15C3.35 37.4048 2 36.0762 2 34.3048V19.8381C2 18.0667 3.35 16.7381 5.15 16.7381H37.85C39.5 16.7381 41 18.0667 41 19.8381V34.3048C41 36.0762 39.65 37.4048 37.85 37.4048Z" stroke="black" stroke-miterlimit="10" stroke-linecap="round" stroke-linejoin="round"/>
<path d="M39.5 37.4048H3.5V61.0238H39.5V37.4048Z" stroke="black" stroke-miterlimit="10" stroke-linecap="round" stroke-linejoin="round"/>
<path d="M32 35.9286V40.3572" stroke="black" stroke-miterlimit="10" stroke-linecap="round" stroke-linejoin="round"/>
<path d="M11 40.3572V35.9286" stroke="black" stroke-miterlimit="10" stroke-linecap="round" stroke-linejoin="round"/>
<path d="M29 16.7381L33.5 1.9762H38L36.5 16.7381" stroke="black" stroke-miterlimit="10" stroke-linecap="round" stroke-linejoin="round"/>
<path d="M14 16.7381L9.5 1.9762H5L6.5 16.7381" stroke="black" stroke-miterlimit="10" stroke-linecap="round" stroke-linejoin="round"/>
<path d="M39.5 49.2143H3.5V61.0238H39.5V49.2143Z" stroke="black" stroke-miterlimit="10" stroke-linecap="round" stroke-linejoin="round"/>
</svg>
