<svg width="53" height="61" viewBox="0 0 53 61" fill="none" xmlns="http://www.w3.org/2000/svg">
<path d="M39.7465 3.78573L42.5803 7.64287C39.7465 11.5 26.5694 12.3572 26.5694 12.3572C29.2615 9.50002 39.7465 3.78573 39.7465 3.78573ZM39.7465 3.78573C34.9291 1.92859 26.4277 1.92859 26.4277 1.92859" stroke="black" stroke-miterlimit="10" stroke-linecap="round" stroke-linejoin="round"/>
<path d="M42.582 7.64288L49.0997 11.5L51.0834 45.7857L45.4158 46.6429L43.4322 21.9286" stroke="black" stroke-miterlimit="10" stroke-linecap="round" stroke-linejoin="round"/>
<path d="M44.8474 46.2143V59.0714H26.4277" stroke="black" stroke-miterlimit="10" stroke-linecap="round" stroke-linejoin="round"/>
<path d="M26.4277 53.3572H44.8474" stroke="black" stroke-miterlimit="10" stroke-linecap="round" stroke-linejoin="round"/>
<path d="M31.2452 40.5C31.2452 40.5 30.2533 49.0714 37.9046 49.0714" stroke="black" stroke-miterlimit="10" stroke-linecap="round" stroke-linejoin="round"/>
<path d="M13.2518 3.78573L10.418 7.64287C13.2518 11.5 26.4289 12.3572 26.4289 12.3572C23.5951 9.50002 13.2518 3.78573 13.2518 3.78573ZM13.2518 3.78573C17.9275 1.92859 26.4289 1.92859 26.4289 1.92859" stroke="black" stroke-miterlimit="10" stroke-linecap="round" stroke-linejoin="round"/>
<path d="M10.4174 7.64288L3.75798 11.5L1.91602 45.7857L7.58359 46.6429L9.42555 21.9286" stroke="black" stroke-miterlimit="10" stroke-linecap="round" stroke-linejoin="round"/>
<path d="M8.00781 46.2143V59.0714H26.4274" stroke="black" stroke-miterlimit="10" stroke-linecap="round" stroke-linejoin="round"/>
<path d="M26.4274 53.3572H8.00781" stroke="black" stroke-miterlimit="10" stroke-linecap="round" stroke-linejoin="round"/>
<path d="M21.7532 40.5C21.7532 40.5 22.745 49.0714 15.0938 49.0714" stroke="black" stroke-miterlimit="10" stroke-linecap="round" stroke-linejoin="round"/>
</svg>
