<svg width="51" height="63" viewBox="0 0 51 63" fill="none" xmlns="http://www.w3.org/2000/svg">
<path d="M40.2059 18.2143L41.6765 58.0714L29.9118 61.0238L25.5 52.7572" stroke="black" stroke-miterlimit="10" stroke-linecap="round" stroke-linejoin="round"/>
<path d="M25.5 1.9762H31.3824L25.5 18.3619" stroke="black" stroke-miterlimit="10" stroke-linecap="round" stroke-linejoin="round"/>
<path d="M31.3828 1.9762L35.7946 6.40477L47.5593 10.8333L49.0299 46.2619H41.6769" stroke="black" stroke-miterlimit="10" stroke-linecap="round" stroke-linejoin="round"/>
<path d="M25.4994 52.7572L18.1465 38.881L25.4994 18.3619" stroke="black" stroke-miterlimit="10" stroke-linecap="round" stroke-linejoin="round"/>
<path d="M10.7948 18.2143L9.32422 58.0714L21.0889 61.0238L25.5007 52.7572" stroke="black" stroke-miterlimit="10" stroke-linecap="round" stroke-linejoin="round"/>
<path d="M25.4995 18.3619L19.6172 1.9762H25.4995" stroke="black" stroke-miterlimit="10" stroke-linecap="round" stroke-linejoin="round"/>
<path d="M19.6178 1.9762L15.206 6.40477L3.44129 10.8333L1.9707 46.2619H9.32364" stroke="black" stroke-miterlimit="10" stroke-linecap="round" stroke-linejoin="round"/>
<path d="M24.7645 40.3572C25.9828 40.3572 26.9704 39.3658 26.9704 38.1429C26.9704 36.92 25.9828 35.9286 24.7645 35.9286C23.5462 35.9286 22.5586 36.92 22.5586 38.1429C22.5586 39.3658 23.5462 40.3572 24.7645 40.3572Z" fill="black"/>
</svg>
