<svg width="61" height="61" viewBox="0 0 61 61" fill="none" xmlns="http://www.w3.org/2000/svg">
<path d="M37.6429 3.35712L50.5 10.5L59.0714 21.9285L51.9286 29.0714L47.6429 23.3571V59.0714H30.5" stroke="black" stroke-miterlimit="10" stroke-linecap="round" stroke-linejoin="round"/>
<path d="M23.3563 3.35712L10.4992 10.5L1.92773 21.9285L9.07059 29.0714L13.3563 23.3571V59.0714H30.4992" stroke="black" stroke-miterlimit="10" stroke-linecap="round" stroke-linejoin="round"/>
<path d="M26.4997 1.92859H34.4997C35.6426 1.92859 36.6426 2.35716 37.4997 3.2143L38.4997 4.2143C39.6426 5.35716 39.6426 7.2143 38.4997 8.2143L36.9283 9.78573C35.4997 11.2143 33.6426 11.9286 31.7854 11.9286H29.214C27.214 11.9286 25.3569 11.2143 24.0712 9.78573L22.4997 8.2143C21.3569 7.07145 21.3569 5.2143 22.4997 4.2143L23.4997 3.2143C24.3569 2.35716 25.3569 1.92859 26.4997 1.92859Z" stroke="black" stroke-miterlimit="10" stroke-linecap="round" stroke-linejoin="round"/>
</svg>
