<svg width="245" height="181" viewBox="0 0 245 181" fill="none" xmlns="http://www.w3.org/2000/svg">
<g opacity="0.25" clip-path="url(#clip0_131_620)">
<path d="M6.65001 0.710022C-28.2876 0.710022 -62.4407 11.0701 -91.4904 30.4802C-120.54 49.8903 -143.182 77.4787 -156.552 109.757C-169.923 142.035 -173.422 177.553 -166.606 211.819C-159.791 246.086 -142.968 277.562 -118.264 302.267C-93.56 326.972 -62.0849 343.797 -27.8188 350.615C6.44727 357.432 41.9654 353.935 74.2441 340.566C106.523 327.198 134.113 304.557 153.524 275.509C172.936 246.46 183.298 212.308 183.3 177.37C183.301 154.171 178.733 131.199 169.856 109.766C160.979 88.3326 147.968 68.8577 131.564 52.4531C115.16 36.0486 95.6862 23.0358 74.2534 14.1577C52.8205 5.27954 29.8489 0.710022 6.65001 0.710022ZM6.65001 295.52C-16.7218 295.522 -39.5694 288.593 -59.0034 275.61C-78.4375 262.627 -93.5852 244.173 -102.531 222.581C-111.477 200.989 -113.819 177.229 -109.261 154.306C-104.704 131.383 -93.4508 110.326 -76.9259 93.7983C-60.4009 77.2705 -39.346 66.0141 -16.4236 61.4526C6.49873 56.891 30.259 59.2292 51.8525 68.1714C73.446 77.1135 91.9029 92.2581 104.889 111.69C117.876 131.122 124.808 153.968 124.81 177.34C124.811 192.858 121.756 208.225 115.819 222.562C109.881 236.9 101.178 249.928 90.2059 260.902C79.2337 271.876 66.2075 280.581 51.871 286.521C37.5344 292.461 22.1683 295.519 6.65001 295.52Z" fill="url(#paint0_linear_131_620)"/>
<path d="M182.91 354H244.43V337.84C244.43 267.33 244.55 196.84 244.36 126.32C244.29 99.63 242.88 73 233 47.72C225.69 29.11 213.53 14 198.92 0L162.23 50.55C180.47 67.74 182.63 90.03 182.71 112.64C182.98 187.02 182.85 261.4 182.88 335.77L182.91 354Z" fill="url(#paint1_linear_131_620)"/>
</g>
<defs>
<linearGradient id="paint0_linear_131_620" x1="-118.26" y1="302.27" x2="191.51" y2="-7.49997" gradientUnits="userSpaceOnUse">
<stop stop-color="#F9B214"/>
<stop offset="0.5" stop-color="#F18B1A"/>
<stop offset="1" stop-color="#EE7923"/>
</linearGradient>
<linearGradient id="paint1_linear_131_620" x1="294907" y1="717947" x2="343247" y2="729177" gradientUnits="userSpaceOnUse">
<stop stop-color="#F9B214"/>
<stop offset="0.5" stop-color="#F18B1A"/>
<stop offset="1" stop-color="#EE7923"/>
</linearGradient>
<clipPath id="clip0_131_620">
<rect width="414.47" height="354.01" fill="white" transform="translate(-170)"/>
</clipPath>
</defs>
</svg>
