<svg width="33" height="28" viewBox="0 0 33 28" fill="none" xmlns="http://www.w3.org/2000/svg">
<path d="M14.0648 0.0561543C11.2831 0.0561543 8.56385 0.875573 6.25092 2.41079C3.93799 3.94601 2.13526 6.12808 1.0707 8.68107C0.00614687 11.2341 -0.27243 14.0433 0.2702 16.7536C0.81283 19.4638 2.1523 21.9534 4.11922 23.9074C6.08614 25.8615 8.59218 27.1922 11.3204 27.7314C14.0487 28.2706 16.8766 27.9941 19.4467 26.9367C22.0167 25.8793 24.2134 24.0886 25.7589 21.791C27.3045 19.4935 28.1295 16.7922 28.1297 14.0289C28.1298 12.194 27.7661 10.377 27.0593 8.6818C26.3525 6.98656 25.3165 5.44621 24.0105 4.14871C22.7044 2.85122 21.1539 1.82198 19.4474 1.11978C17.7409 0.417575 15.9119 0.0561542 14.0648 0.0561543ZM14.0648 23.3738C12.204 23.374 10.3849 22.8259 8.83753 21.7991C7.29019 20.7722 6.08414 19.3126 5.37187 17.6048C4.6596 15.897 4.47312 14.0177 4.836 12.2046C5.19888 10.3916 6.09483 8.7261 7.41054 7.41886C8.72626 6.11162 10.4026 5.2213 12.2277 4.86051C14.0528 4.49972 15.9446 4.68466 17.6638 5.39193C19.3831 6.0992 20.8526 7.29704 21.8866 8.83398C22.9206 10.3709 23.4725 12.1779 23.4727 14.0265C23.4728 15.2539 23.2296 16.4693 22.7568 17.6033C22.2841 18.7373 21.5911 19.7677 20.7175 20.6357C19.8439 21.5037 18.8068 22.1922 17.6653 22.662C16.5238 23.1318 15.3004 23.3737 14.0648 23.3738Z" fill="url(#paint0_linear_131_185)"/>
<path d="M28.0986 27.9992H32.9968V26.7211C32.9968 21.1441 33.0064 15.5688 32.9913 9.99113C32.9857 7.88012 32.8734 5.77385 32.0868 3.77436C31.5048 2.30242 30.5366 1.10731 29.3733 0L26.4521 3.99819C27.9044 5.35781 28.0763 7.12082 28.0827 8.90913C28.1042 14.7921 28.0938 20.6751 28.0962 26.5573L28.0986 27.9992Z" fill="url(#paint1_linear_131_185)"/>
<defs>
<linearGradient id="paint0_linear_131_185" x1="4.11953" y1="23.9077" x2="28.6199" y2="-0.755585" gradientUnits="userSpaceOnUse">
<stop stop-color="#F9B214"/>
<stop offset="0.5" stop-color="#F18B1A"/>
<stop offset="1" stop-color="#EE7923"/>
</linearGradient>
<linearGradient id="paint1_linear_131_185" x1="23493.9" y1="56785.2" x2="27340.2" y2="57684.7" gradientUnits="userSpaceOnUse">
<stop stop-color="#F9B214"/>
<stop offset="0.5" stop-color="#F18B1A"/>
<stop offset="1" stop-color="#EE7923"/>
</linearGradient>
</defs>
</svg>
